<?xml version="1.0" encoding="UTF-8"?>
<svg id="Layer_2" data-name="Layer 2" xmlns="http://www.w3.org/2000/svg" viewBox="0 0 413.89 242.99">
  <defs>
    <style>
      .cls-1 {
        fill: #52b788;
      }
    </style>
  </defs>
  <g id="Layer_1-2" data-name="Layer 1">
    <path class="cls-1" d="M265.99,204.05l2.08,3.16,3.12,3.14,1.55,2.25,4.16,2.25,2.6,4.5,5.71,4.96,4.15,1.35,4.68-.45,5.71,3.6,1.04,1.8,2.59.45,2.08,3.6,3.64,3.61,1.49,4.09c1.5-.14,3-.23,4.49-.22,32.93.02,65.86.57,98.79.85v-59.55l-4,3.03-4.67-1.35-3.63-2.25-3.64-4.05-4.15-.9v-3.61h-1.56l-1.04,2.71h-2.6l-2.07,2.25-1.56-.45-1.04-4.96-1.56-1.8,3.12-6.31-5.2-1.35-2.07,4.51h-1.56l.52-2.25-1.56-.9v-3.16l-5.71-2.71-3.12-3.16-4.15.9-3.64-.9-1.04-2.71-3.11-.45.52-2.25-1.04-1.8-3.64,1.35-2.59-2.25.51-2.71-1.03-4.51-3.12.45-1.56-1.8-5.19-.9-2.08-1.8-5.71-1.8-1.56-2.25h-3.63l-7.79-9.93-5.72-9.02-2.59-5.87-.52-4.06,5.19-2.25h-2.08l-2.59-1.82-1.56-3.61-2.08-.9.52-2.25-1.56-.45-1.55-4.52-1.04-8.13v-4.52l4.67-11.28-.52-2.72-1.56-3.16v-2.72l-2.07-2.25-2.08,2.71-.52-1.35-3.12.9-1.04-1.8h-2.07l-4.68-2.27-3.11.45-2.6-.9-3.11-2.71-2.6-4.97-2.08-7.69,2.6-1.8-.52-2.27,2.08-4.52-1.56-6.32-7.27-.46-1.04-1.35-2.08.9-3.11-1.35-2.08-2.72-4.16-.45-3.63-5.42-3.64-7.24-2.59-2.27h-6.75l-2.6-.9-5.19,1.8-5.2-.9-2.08,3.17-3.63.45-1.04,1.82-6.75,4.52-3.64-.45h-4.67l-3.63,1.35-8.31,4.97-2.08,4.98-3.12,1.35-11.42.45-3.12-1.8-4.15-1.36-6.23-.45-5.2,1.36-6.75-.46-4.15,5.43-4.68,4.52-3.11,1.35-7.79,5.87,1.55,4.52-3.11,10.86v6.78l-2.6,3.61-2.07,1.36-3.64.9-4.67-2.27-1.04.46-5.2-1.82-3.11,2.72-4.68,2.71.52,5.42-3.63,2.71-2.08,2.27-6.23.9-1.56,5.42-5.71.45-2.08-1.82-2.6,1.36-.51,1.8-7.28,2.71-6.23.9v.9l-5.71.9-5.71,1.82.52,3.16-6.23-.9-3.64,1.8-1.56,2.71-4.15.45-2.08,2.27v2.25l-4.15.45-10.39-.45-1.04,3.61-4.67,2.25h-3.64l-3.11-1.8-2.08,7.68-4.68,3.16-1.55,4.51v3.17l-.52,6.31-2.08,5.41,5.19-.9,3.12-2.71,7.27-1.8,3.63.9,9.87-4.51,3.64.9,1.56-.9,2.59-.45,3.64,2.71,8.83-1.35,4.15.9,1.04,1.8,2.6-1.35h5.19l3.63-.45,2.08-2.25h2.08l8.31-4.52,2.07-2.71,2.6-.9-.52-2.25,1.04-2.71-1.56-3.61-5.71-5.42-2.08,1.35-3.63-2.25-3.64-.45-4.67,1.35-1.56-2.25,1.56-4.06,2.6-.45,3.63-4.07,12.98,5.87,4.16-.45,1.56,1.35,3.63-1.35,10.91-.45,1.55.45,1.56,5.41,2.6,11.28,2.6,2.71,2.07-.9,4.68,2.71,2.07.45,5.2,4.52,4.15,2.25,3.12-1.8h5.71l2.08-1.35,7.79-.91,5.19-4.96,5.71.45,4.68,2.25,3.11.45,5.72,2.27,2.07,2.25,5.2,2.71,2.59-.45,2.08,1.35h2.6l1.56,1.8,2.59.9,1.04,2.71,4.15,4.06,2.6.9,2.6,3.61,2.08,4.51,2.07,3.61h2.6l2.6,2.25,2.07.45,6.24,5.41,1.55,3.61,3.64,2.25,4.15,1.35,2.08,6.31,3.64.45,4.67-2.71,1.56.45,2.59,3.61,3.12.9,3.64-.45,1.55.9,2.08,5.85,2.08,3.61,1.56,3.61,3.11,2.71,4.68,8.56,2.07-.45Z"/>
  </g>
</svg>